<?xml version="1.0" encoding="utf-8"?><svg viewBox="0 0 1600 849" xmlns="http://www.w3.org/2000/svg" xmlns:xlink="http://www.w3.org/1999/xlink"><style>:root>svg{display:none}:root>svg:target{display:block}</style><svg version="1.1" id="amazon" x="0" y="0" viewBox="0 0 512 470.5" xml:space="preserve" xmlns="http://www.w3.org/2000/svg"><style>.ast0{fill:#65e496}</style><path class="ast0" d="M403.9 261.6c-9.3-14.7-16-31-19.9-48V96.3C383.1 42.2 338.4-1 284.2 0c-2.3 0-4.5.2-6.8.4-68.8 0-110.6 30.5-127.6 93.2-1.5 5.7 1.8 11.5 7.5 13.1.2 0 .4.1.5.1 21.6 4.8 43.5 8.4 65.5 10.9 4.9.3 9.3-2.7 10.8-7.4 6.3-19.4 11-24.6 32.5-24.6 24.9 0 30.9 12.8 31.9 43.1C180.7 135.3 128 168.2 128 234.9c0 48 51.6 85.3 96 85.3 30.6 2.7 61-7.1 84.3-27.1 11.6 10.9 24.9 19.7 39.4 26.2 1.3.6 2.8.9 4.3.9 2.8 0 5.5-1.1 7.5-3.1l42.7-42.7c3.5-3.3 4.2-8.6 1.7-12.8zm-108.3-3c-10.1 11.3-24.3 18.1-39.5 19-9.7 0-41.5-3.8-42.7-53.1-.1-10.1 4-19.9 11.3-26.9 24.2-18.6 54.2-28 84.7-26.7 5.7 0 10.4 4.5 10.7 10.2 3 28.2-5.9 56.3-24.5 77.5zM504 341.9c-3-.8-73.8-19-106.2 13.4-4.1 4.2-4 11 .3 15.1 4.1 4 10.7 4 14.8 0 17.1-17.1 56-13.8 77.3-9.8-1.8 23.6-9 60.9-24.7 66.9-5.5 2-8.4 8.1-6.3 13.7 2 5.5 8.1 8.4 13.7 6.3.1 0 .2-.1.3-.1 35.9-13.7 38.7-86.7 38.9-95.1 0-4.8-3.3-9.1-8.1-10.4z"/><path class="ast0" d="M469.3 394.9c0-11.8-9.5-21.3-21.3-21.3-4.3 0-8.6 1.4-12.1 3.9-143.6 57.1-269.4 46.7-420-34.7-5.1-2.9-11.6-1.1-14.5 4-2.4 4.3-1.6 9.7 2 13C78.2 433.6 161 470.5 251.1 470.5c70-1.8 138.6-20.5 199.9-54.4 10.6-1.5 18.4-10.6 18.3-21.2z"/></svg><svg viewBox="0 0 1600 849" id="bg_review" xmlns="http://www.w3.org/2000/svg"><path d="M-1 0l802 61 799-61v789l-799 60-802-60V0z" fill="#44444f" fill-rule="evenodd"/></svg><svg viewBox="0 0 1600 849" id="bg_review2" xmlns="http://www.w3.org/2000/svg"><path d="M-1 0l802 61 799-61v789l-799 60-802-60V0z" fill="#44444f" fill-rule="evenodd"/></svg><svg id="book" viewBox="0 0 593.969 639" xmlns="http://www.w3.org/2000/svg"><defs><style>.dcls-1{fill:#44444f}.dcls-2{fill:#65e496;fill-rule:evenodd}.dcls-3{fill:#3d3d47}</style></defs><rect id="dbook-2" data-name="book" class="dcls-1" width="444.969" height="639" rx="5" ry="5"/><path id="dRectangle_10_copy" data-name="Rectangle 10 copy" class="dcls-2" d="M591.051 795.046L756.47 629.655a30.747 30.747 0 0143.486 43.479L634.537 838.526a30.747 30.747 0 01-43.486-43.48z" transform="translate(-215 -259)"/><path id="dRectangle_10_copy_2" data-name="Rectangle 10 copy 2" class="dcls-2" d="M510.258 749.231L675.677 583.84a30.747 30.747 0 0143.486 43.479L553.745 792.71a30.747 30.747 0 11-43.487-43.479z" transform="translate(-215 -259)"/><path class="dcls-3" d="M0 0h62.719v639H0z"/></svg><svg id="book_small" data-name="book img" viewBox="0 0 363.844 409" xmlns="http://www.w3.org/2000/svg"><defs><style>.ecls-1{fill:#44444f}.ecls-2{fill:#65e496;fill-rule:evenodd}.ecls-3{fill:#3d3d47}</style></defs><rect id="ebook" class="ecls-1" width="268.938" height="409" rx="5" ry="5"/><path class="ecls-2" d="M515.672 3676.17l105.655-61a5 5 0 115 8.66l-105.655 61a5 5 0 01-5-8.66z" transform="translate(-265 -3382)"/><path id="eRectangle_11_copy" data-name="Rectangle 11 copy" class="ecls-2" d="M515.672 3649.17l105.655-61a5 5 0 115 8.66l-105.655 61a5 5 0 01-5-8.66z" transform="translate(-265 -3382)"/><path class="ecls-3" d="M0 0h37.906v409H0z"/></svg><svg version="1.1" id="logo" x="0" y="0" viewBox="0 0 137 28" xml:space="preserve" xmlns="http://www.w3.org/2000/svg"><style>.fst0{enable-background:new}.fst1{fill:#fefefe}.fst2{fill:#65e496}.fst3{fill:#44444f}</style><g class="fst0"><path class="fst1" d="M40.5 23v-2.4l2.1-.4V5.9l-2.1-.4V3.1h8.8c2.3 0 4.2.5 5.5 1.4s2 2.3 2 4.1c0 .9-.2 1.7-.7 2.5-.5.7-1.2 1.3-2.1 1.6.8.2 1.5.5 2 .9s.9 1 1.2 1.6c.3.6.4 1.3.4 2 0 1.9-.6 3.3-1.9 4.3s-3 1.5-5.3 1.5h-9.9zm6.1-11.6h2.9c1.1 0 1.9-.2 2.5-.7s.9-1.1.9-1.9c0-.9-.3-1.6-.9-2-.6-.4-1.4-.7-2.6-.7h-2.7v5.3zm0 8.5h3.7c1.1 0 1.9-.2 2.4-.7.6-.5.8-1.1.8-2 0-.7-.1-1.2-.3-1.7-.2-.4-.5-.8-1-1-.4-.2-1-.3-1.7-.3h-4v5.7zM68.7 23.3c-1.6 0-3-.3-4.2-.8-1.2-.5-2.1-1.3-2.8-2.4-.7-1-1-2.3-1-3.8V5.9l-2.1-.4V3.1h8.2v2.4l-2.1.4v10.4c0 .9.2 1.6.5 2.2.3.6.8 1 1.4 1.3.6.3 1.3.4 2.1.4s1.6-.1 2.2-.4 1.1-.7 1.4-1.3c.3-.6.5-1.3.5-2.2V5.9l-2.1-.4V3.1h8.2v2.4l-2.1.4v10.4c0 1.5-.3 2.8-1 3.8s-1.6 1.8-2.8 2.4-2.7.8-4.3.8zM80.1 23v-2.4l2.1-.4V5.9l-2.1-.4V3.1h8.1v2.4l-2 .4v14.3l2 .4V23h-8.1zm5.3-4.9l-2.1-2.4 9.7-10-2-.2V3.1h8.2v2.4l-1.9.4-11.9 12.2zm6.2 4.9v-2.4l1.9-.2-5.1-7 2.6-2.6 7.1 9.4 2 .3V23h-8.5z"/></g><g class="fst0"><path class="fst2" d="M101.3 23v-2.4l2.1-.4V5.9l-2.1-.4V3.1h15.4v5.4h-3.1l-.2-2.3h-6.1v5h6.7v3.1h-6.7V20h6.4l.2-2.4h3V23h-15.6zM119.1 23v-2.4l2.1-.4V5.9l-2.1-.4V3.1h15.4v5.4h-3.1l-.2-2.3h-6.1v5h6.7v3.1h-6.7V20h6.4l.2-2.4h3V23h-15.6z"/></g><g id="flogo_icon"><path id="fRectangle_10_copy_3" class="fst2" d="M28 28L0 0h28v28z"/><path class="fst3" d="M28 0L0 28V0h28z"/></g></svg><svg version="1.1" id="logo_footer" x="0" y="0" viewBox="0 0 137 28" xml:space="preserve" xmlns="http://www.w3.org/2000/svg"><style>.gst0{enable-background:new}.gst1{fill:#fefefe}.gst2{fill:#65e496}.gst3{fill:#80809b}</style><g class="gst0"><path class="gst1" d="M40.5 23v-2.4l2.1-.4V5.9l-2.1-.4V3.1h8.8c2.3 0 4.2.5 5.5 1.4s2 2.3 2 4.1c0 .9-.2 1.7-.7 2.5-.5.7-1.2 1.3-2.1 1.6.8.2 1.5.5 2 .9s.9 1 1.2 1.6.4 1.3.4 2c0 1.9-.6 3.3-1.9 4.3s-3 1.5-5.3 1.5h-9.9zm6.1-11.6h2.9c1.1 0 1.9-.2 2.5-.7s.9-1.1.9-1.9c0-.9-.3-1.6-.9-2-.6-.4-1.4-.7-2.6-.7h-2.7v5.3h-.1zm0 8.5h3.7c1.1 0 1.9-.2 2.4-.7.6-.5.8-1.1.8-2 0-.7-.1-1.2-.3-1.7-.2-.4-.5-.8-1-1-.4-.2-1-.3-1.7-.3h-4l.1 5.7zM68.7 23.3c-1.6 0-3-.3-4.2-.8-1.2-.5-2.1-1.3-2.8-2.4-.7-1-1-2.3-1-3.8V5.9l-2.1-.4V3.1h8.2v2.4l-2.1.4v10.4c0 .9.2 1.6.5 2.2s.8 1 1.4 1.3 1.3.4 2.1.4 1.6-.1 2.2-.4 1.1-.7 1.4-1.3c.3-.6.5-1.3.5-2.2V5.9l-2.1-.4V3.1h8.2v2.4l-2.1.4v10.4c0 1.5-.3 2.8-1 3.8s-1.6 1.8-2.8 2.4-2.7.8-4.3.8zM80.1 23v-2.4l2.1-.4V5.9l-2.1-.4V3.1h8.1v2.4l-2 .4v14.3l2 .4V23h-8.1zm5.3-4.9l-2.1-2.4 9.7-10-2-.2V3.1h8.2v2.4l-1.9.4-11.9 12.2zm6.2 4.9v-2.4l1.9-.2-5.1-7 2.6-2.6 7.1 9.4 2 .3V23h-8.5z"/></g><g class="gst0"><path class="gst2" d="M101.3 23v-2.4l2.1-.4V5.9l-2.1-.4V3.1h15.4v5.4h-3.1l-.2-2.3h-6.1v5h6.7v3.1h-6.7V20h6.4l.2-2.4h3V23h-15.6zM119.1 23v-2.4l2.1-.4V5.9l-2.1-.4V3.1h15.4v5.4h-3.1l-.2-2.3h-6.1v5h6.7v3.1h-6.7V20h6.4l.2-2.4h3V23h-15.6z"/></g><path id="gRectangle_10_copy_3" class="gst2" d="M28 28L0 0h28v28z"/><path class="gst3" d="M28 0L0 28V0h28z"/></svg><svg version="1.1" id="sass" x="0" y="0" viewBox="0 0 487 403.4" xml:space="preserve" xmlns="http://www.w3.org/2000/svg"><style>.hst0{fill:#65e496}</style><path class="hst0" d="M422.9 240.1c-7.8 2.9-7.5 3-11.6-4.5-5.2-9.5-8-19.5-8.3-30.4-.2-9.4 2.4-18 5.6-26.6 2.6-6.8-.8-9.2-6.6-9.8-4.3-.4-8.7-.4-13 0-11.1 1.1-12.2 2.1-15.2 12.9-1.8 6.4-3.2 12.9-6.1 19-7.2 15-15.4 29.4-23.7 43.8-1.5 2.6-2.7 5.4-4.9 7.6-6.1-9.1-8.4-19.1-8.9-29.7-.5-10.4 2.7-20.1 6.2-29.6 1.2-3.2.2-5.2-2.6-6.6-1.2-.6-2.6-1.2-4-1.3-7.1-.6-14.3-.5-21.2 1.5-3.1.9-5.2 2.6-5.9 6.1-1.4 6.9-3.5 13.6-6.3 20-7.9 17.8-15.8 35.7-23.8 53.5-6.9 15.5-13.7 31-21.9 45.9-.6 1.1-1.1 2.9-2.5 2.5-1.5-.4-1-2.2-1-3.4-.5-8.8 1.9-17.1 4-25.5 3.2-13.3 6.8-26.5 10.2-39.7 1-3.8-.7-6.3-3.8-8.2-4.5-2.6-9-2.7-13.9.9.7-5.4 1-10.1.7-14.9-.5-10.6-5.4-17.4-13.9-19-6.2-1.2-12.1.6-17.7 3.3-13 6.1-23.4 15.4-32.1 26.6-1 1.3-2.1 2.5-3.5 3.3-16.4 9-32.9 17.9-49.3 26.9-1.8 1-3 .7-4.3-.7-8.3-8.9-17.8-16.2-27.3-23.6-13.3-10.4-27-20.2-38.4-32.7-6.7-7.3-12.3-15.3-15.1-25-4.6-15.8-1.1-30.6 6.4-44.6 9-16.6 22.3-29.4 37-40.7C109.5 79.3 135.1 65 162 53.1c30.2-13.2 61.5-21.7 94.8-20.4 13.2.5 26 2.8 37.8 9.3 8.3 4.6 13.8 11.2 15.4 20.9 1.8 11.4-.9 21.9-5.9 31.8-11.3 22.2-29.2 38-50.4 50.3-17.6 10.3-36.7 16.8-56.8 20.2-11.1 1.9-22.3 3-33.5 1.3-12.8-2-24.7-6.2-33.5-16.6-1-1.2-2.3-2-4-1.2-1.8.9-1.6 2.4-1.5 3.9.1 1 .4 2.1.8 3.1 2.4 6.3 6.8 11.1 11.9 15.3 13.4 10.9 29.3 14.1 45.9 14.4 16.3.3 32.4-1.7 48.3-5.5 35.8-8.6 65.9-26.2 87.8-56.3 13.1-18 21.4-37.9 20.7-60.6-.5-14.4-5.3-27.1-15.8-37.5C311.5 13.2 296 7 279.4 3.3 260.9-.8 242.2-1.4 223.3.9c-16.4 2-32.5 5.3-48.1 10.7-23.9 8.2-47 18.4-69.1 30.7-22.7 12.6-44 27-62.7 45.1-16.6 16-30.8 33.6-38.8 55.6-3.4 9.4-5.9 19-3.6 29.2 2.9 13.1 9.4 24.4 17.8 34.6 12.8 15.4 28.5 27.6 44.7 39.2 13 9.3 26.6 17.8 39.1 27.9 3.5 2.8 3.5 2.8-.6 5-4.9 2.5-9.8 5-14.6 7.7-19.3 10.9-37.9 22.7-53.2 39.2-7.5 8.1-12.6 17.2-15 27.3 12.4 18.5 27.1 35.3 43.8 50 28.4-2.2 50.2-17 66.3-41.5 7.8-11.8 11.4-25.2 12.8-39.3 1.2-12.4-.1-24.5-3.7-36.3-.6-2.1-3-4.2-2.1-6 .9-1.7 3.5-2.5 5.4-3.7 7.8-4.5 15.5-8.9 23.5-13.5.3 1.7-.3 2.7-.6 3.8-4.6 16.8-7.8 33.7-4.3 51.2 2.2 10.9 5.8 21.1 12.6 30.1 7.1 9.3 22.8 8.2 29.2-.3 6.1-8 10.1-17.1 14.3-26.1 2.3-4.9 4.4-9.9 6.6-14.9-.4 6-.4 11.8-.2 17.7.2 5.7 1.1 11.4 4.1 16.5 3.6 6.1 10.4 7.9 16.6 4.6 6.6-3.4 11.1-9.1 14.6-15.2 15.1-26.4 29-53.4 40.6-81.6 2.5-6 5-12 7.8-18.6.4 2.2.7 3.5 1 4.9 2.6 13.4 7.1 26.1 13.8 38.1 1.4 2.6 1.3 4.3-.5 6.8-6.1 8.3-12.8 16.1-19.4 24-5.5 6.6-11.5 13-16.1 20.3-4.2 6.6-1.8 13.3 5.2 14.8 2.2.5 4.4.6 6.6.6 12.2-.1 23.5-3.8 34-9.8 14.1-8.1 22.5-19.9 22.1-36.7-.2-7.6-2.2-15-5.3-22-.7-1.6-.7-2.7.3-4.1 9.8-14 18.4-28.7 26.4-43.9 1.4-2.7 2.4-5.6 4.7-8.2.3 1.1.5 1.7.7 2.4 2.5 12.5 5.9 24.8 12.3 36 1.8 3.1.9 4.6-1.5 6.7-8.3 7.1-15.4 15.4-20.9 24.8-4.3 7.4-7.3 15.3-7.2 23.9 0 9.6 7.4 15.3 16.8 13 9.8-2.3 18.8-6.3 27-12.3 17.7-13 22.9-26.6 17.4-45.7-2.2-7.5-2.1-7.4 5.4-9.7 16.5-5 33.2-5.2 50-2.4 1.9.3 3.8.7 5.6 1.1 1-6 1.8-12 2.3-18.1-21.7-5.2-43.1-2.4-64.3 5.6zM74.7 374.5c-4.8 1.7-9.7 2.4-14.8 2-6.3-.5-10.3-5-10.7-11.7-.5-7.7 1.8-14.7 5.2-21.5 6.2-12.3 16.5-20.7 27-28.9 10.3-8 21.3-14.8 32.4-21.5 3.4-2 3.4-2 4.2 2 1 5.2 1.9 10.3 1.6 15 .8 28.3-19.6 55.7-44.9 64.6zM228 232.7c-1.8 11.9-5.7 23.2-9.8 34.3-5.6 15.2-11.1 30.5-18.2 45.2-1.6 3.4-3.3 6.7-5.9 9.5-2.5 2.6-4.7 2.3-6.4-.9-3.3-6.2-2.9-13.1-3.5-18.1.2-25.2 8.6-45.7 22.5-64.2 3.9-5.2 8.9-9.3 15.4-11 4.6-1.2 6.6.6 5.9 5.2zm97.4 74.4c-4.8 8.2-11.6 14.2-20.1 18.5-.9.4-2.1 1.2-2.9.2-.8-1 .5-1.7 1-2.3 8.4-9.1 16.6-18.4 24.1-28.3.1-.2.4-.2 1-.4.1 4.6-.9 8.6-3.1 12.3zm57.8-.3c-1.2.6-2.7 1.7-3.9.7-1.3-1-.8-2.9-.4-4.3 1.9-6.4 4.5-12.5 8-18.2 3-4.8 6.6-9 10.7-12.9 1.6-1.6 2.4-1.4 2.9.9.6 2.3.6 4.6.7 7-.1 12.9-6.6 21.5-18 26.8z"/></svg></svg>