<?xml version="1.0" encoding="utf-8"?><svg version="1.1" id="aCapa_1" xmlns="http://www.w3.org/2000/svg" x="0" y="0" viewBox="0 0 512 470.5" xml:space="preserve" width="512" height="470.5"><style>.ast0{fill:#65e496}</style><path class="ast0" d="M403.9 261.6c-9.3-14.7-16-31-19.9-48V96.3C383.1 42.2 338.4-1 284.2 0c-2.3 0-4.5.2-6.8.4-68.8 0-110.6 30.5-127.6 93.2-1.5 5.7 1.8 11.5 7.5 13.1.2 0 .4.1.5.1 21.6 4.8 43.5 8.4 65.5 10.9 4.9.3 9.3-2.7 10.8-7.4 6.3-19.4 11-24.6 32.5-24.6 24.9 0 30.9 12.8 31.9 43.1C180.7 135.3 128 168.2 128 234.9c0 48 51.6 85.3 96 85.3 30.6 2.7 61-7.1 84.3-27.1 11.6 10.9 24.9 19.7 39.4 26.2 1.3.6 2.8.9 4.3.9 2.8 0 5.5-1.1 7.5-3.1l42.7-42.7c3.5-3.3 4.2-8.6 1.7-12.8zm-108.3-3c-10.1 11.3-24.3 18.1-39.5 19-9.7 0-41.5-3.8-42.7-53.1-.1-10.1 4-19.9 11.3-26.9 24.2-18.6 54.2-28 84.7-26.7 5.7 0 10.4 4.5 10.7 10.2 3 28.2-5.9 56.3-24.5 77.5zM504 341.9c-3-.8-73.8-19-106.2 13.4-4.1 4.2-4 11 .3 15.1 4.1 4 10.7 4 14.8 0 17.1-17.1 56-13.8 77.3-9.8-1.8 23.6-9 60.9-24.7 66.9-5.5 2-8.4 8.1-6.3 13.7 2 5.5 8.1 8.4 13.7 6.3.1 0 .2-.1.3-.1 35.9-13.7 38.7-86.7 38.9-95.1 0-4.8-3.3-9.1-8.1-10.4z"/><path class="ast0" d="M469.3 394.9c0-11.8-9.5-21.3-21.3-21.3-4.3 0-8.6 1.4-12.1 3.9-143.6 57.1-269.4 46.7-420-34.7-5.1-2.9-11.6-1.1-14.5 4-2.4 4.3-1.6 9.7 2 13C78.2 433.6 161 470.5 251.1 470.5c70-1.8 138.6-20.5 199.9-54.4 10.6-1.5 18.4-10.6 18.3-21.2z"/></svg>