<?xml version="1.0" encoding="utf-8"?><svg version="1.1" id="hCapa_1" xmlns="http://www.w3.org/2000/svg" x="0" y="0" viewBox="0 0 487 403.4" xml:space="preserve" width="487" height="403.4"><style>.hst0{fill:#65e496}</style><path class="hst0" d="M422.9 240.1c-7.8 2.9-7.5 3-11.6-4.5-5.2-9.5-8-19.5-8.3-30.4-.2-9.4 2.4-18 5.6-26.6 2.6-6.8-.8-9.2-6.6-9.8-4.3-.4-8.7-.4-13 0-11.1 1.1-12.2 2.1-15.2 12.9-1.8 6.4-3.2 12.9-6.1 19-7.2 15-15.4 29.4-23.7 43.8-1.5 2.6-2.7 5.4-4.9 7.6-6.1-9.1-8.4-19.1-8.9-29.7-.5-10.4 2.7-20.1 6.2-29.6 1.2-3.2.2-5.2-2.6-6.6-1.2-.6-2.6-1.2-4-1.3-7.1-.6-14.3-.5-21.2 1.5-3.1.9-5.2 2.6-5.9 6.1-1.4 6.9-3.5 13.6-6.3 20-7.9 17.8-15.8 35.7-23.8 53.5-6.9 15.5-13.7 31-21.9 45.9-.6 1.1-1.1 2.9-2.5 2.5-1.5-.4-1-2.2-1-3.4-.5-8.8 1.9-17.1 4-25.5 3.2-13.3 6.8-26.5 10.2-39.7 1-3.8-.7-6.3-3.8-8.2-4.5-2.6-9-2.7-13.9.9.7-5.4 1-10.1.7-14.9-.5-10.6-5.4-17.4-13.9-19-6.2-1.2-12.1.6-17.7 3.3-13 6.1-23.4 15.4-32.1 26.6-1 1.3-2.1 2.5-3.5 3.3-16.4 9-32.9 17.9-49.3 26.9-1.8 1-3 .7-4.3-.7-8.3-8.9-17.8-16.2-27.3-23.6-13.3-10.4-27-20.2-38.4-32.7-6.7-7.3-12.3-15.3-15.1-25-4.6-15.8-1.1-30.6 6.4-44.6 9-16.6 22.3-29.4 37-40.7C109.5 79.3 135.1 65 162 53.1c30.2-13.2 61.5-21.7 94.8-20.4 13.2.5 26 2.8 37.8 9.3 8.3 4.6 13.8 11.2 15.4 20.9 1.8 11.4-.9 21.9-5.9 31.8-11.3 22.2-29.2 38-50.4 50.3-17.6 10.3-36.7 16.8-56.8 20.2-11.1 1.9-22.3 3-33.5 1.3-12.8-2-24.7-6.2-33.5-16.6-1-1.2-2.3-2-4-1.2-1.8.9-1.6 2.4-1.5 3.9.1 1 .4 2.1.8 3.1 2.4 6.3 6.8 11.1 11.9 15.3 13.4 10.9 29.3 14.1 45.9 14.4 16.3.3 32.4-1.7 48.3-5.5 35.8-8.6 65.9-26.2 87.8-56.3 13.1-18 21.4-37.9 20.7-60.6-.5-14.4-5.3-27.1-15.8-37.5C311.5 13.2 296 7 279.4 3.3 260.9-.8 242.2-1.4 223.3.9c-16.4 2-32.5 5.3-48.1 10.7-23.9 8.2-47 18.4-69.1 30.7-22.7 12.6-44 27-62.7 45.1-16.6 16-30.8 33.6-38.8 55.6-3.4 9.4-5.9 19-3.6 29.2 2.9 13.1 9.4 24.4 17.8 34.6 12.8 15.4 28.5 27.6 44.7 39.2 13 9.3 26.6 17.8 39.1 27.9 3.5 2.8 3.5 2.8-.6 5-4.9 2.5-9.8 5-14.6 7.7-19.3 10.9-37.9 22.7-53.2 39.2-7.5 8.1-12.6 17.2-15 27.3 12.4 18.5 27.1 35.3 43.8 50 28.4-2.2 50.2-17 66.3-41.5 7.8-11.8 11.4-25.2 12.8-39.3 1.2-12.4-.1-24.5-3.7-36.3-.6-2.1-3-4.2-2.1-6 .9-1.7 3.5-2.5 5.4-3.7 7.8-4.5 15.5-8.9 23.5-13.5.3 1.7-.3 2.7-.6 3.8-4.6 16.8-7.8 33.7-4.3 51.2 2.2 10.9 5.8 21.1 12.6 30.1 7.1 9.3 22.8 8.2 29.2-.3 6.1-8 10.1-17.1 14.3-26.1 2.3-4.9 4.4-9.9 6.6-14.9-.4 6-.4 11.8-.2 17.7.2 5.7 1.1 11.4 4.1 16.5 3.6 6.1 10.4 7.9 16.6 4.6 6.6-3.4 11.1-9.1 14.6-15.2 15.1-26.4 29-53.4 40.6-81.6 2.5-6 5-12 7.8-18.6.4 2.2.7 3.5 1 4.9 2.6 13.4 7.1 26.1 13.8 38.1 1.4 2.6 1.3 4.3-.5 6.8-6.1 8.3-12.8 16.1-19.4 24-5.5 6.6-11.5 13-16.1 20.3-4.2 6.6-1.8 13.3 5.2 14.8 2.2.5 4.4.6 6.6.6 12.2-.1 23.5-3.8 34-9.8 14.1-8.1 22.5-19.9 22.1-36.7-.2-7.6-2.2-15-5.3-22-.7-1.6-.7-2.7.3-4.1 9.8-14 18.4-28.7 26.4-43.9 1.4-2.7 2.4-5.6 4.7-8.2.3 1.1.5 1.7.7 2.4 2.5 12.5 5.9 24.8 12.3 36 1.8 3.1.9 4.6-1.5 6.7-8.3 7.1-15.4 15.4-20.9 24.8-4.3 7.4-7.3 15.3-7.2 23.9 0 9.6 7.4 15.3 16.8 13 9.8-2.3 18.8-6.3 27-12.3 17.7-13 22.9-26.6 17.4-45.7-2.2-7.5-2.1-7.4 5.4-9.7 16.5-5 33.2-5.2 50-2.4 1.9.3 3.8.7 5.6 1.1 1-6 1.8-12 2.3-18.1-21.7-5.2-43.1-2.4-64.3 5.6zM74.7 374.5c-4.8 1.7-9.7 2.4-14.8 2-6.3-.5-10.3-5-10.7-11.7-.5-7.7 1.8-14.7 5.2-21.5 6.2-12.3 16.5-20.7 27-28.9 10.3-8 21.3-14.8 32.4-21.5 3.4-2 3.4-2 4.2 2 1 5.2 1.9 10.3 1.6 15 .8 28.3-19.6 55.7-44.9 64.6zM228 232.7c-1.8 11.9-5.7 23.2-9.8 34.3-5.6 15.2-11.1 30.5-18.2 45.2-1.6 3.4-3.3 6.7-5.9 9.5-2.5 2.6-4.7 2.3-6.4-.9-3.3-6.2-2.9-13.1-3.5-18.1.2-25.2 8.6-45.7 22.5-64.2 3.9-5.2 8.9-9.3 15.4-11 4.6-1.2 6.6.6 5.9 5.2zm97.4 74.4c-4.8 8.2-11.6 14.2-20.1 18.5-.9.4-2.1 1.2-2.9.2-.8-1 .5-1.7 1-2.3 8.4-9.1 16.6-18.4 24.1-28.3.1-.2.4-.2 1-.4.1 4.6-.9 8.6-3.1 12.3zm57.8-.3c-1.2.6-2.7 1.7-3.9.7-1.3-1-.8-2.9-.4-4.3 1.9-6.4 4.5-12.5 8-18.2 3-4.8 6.6-9 10.7-12.9 1.6-1.6 2.4-1.4 2.9.9.6 2.3.6 4.6.7 7-.1 12.9-6.6 21.5-18 26.8z"/></svg>