<?xml version="1.0" encoding="utf-8"?>
<!-- Generator: Adobe Illustrator 21.0.2, SVG Export Plug-In . SVG Version: 6.00 Build 0)  -->
<svg version="1.1" id="Capa_1" xmlns="http://www.w3.org/2000/svg" xmlns:xlink="http://www.w3.org/1999/xlink" x="0px" y="0px"
	 viewBox="0 0 512 470.5" style="enable-background:new 0 0 512 470.5;" xml:space="preserve">
<style type="text/css">
	.st0{fill:#65E496;}
</style>
<path class="st0" d="M403.9,261.6c-9.3-14.7-16-31-19.9-48V96.3C383.1,42.2,338.4-1,284.2,0c-2.3,0-4.5,0.2-6.8,0.4
	c-68.8,0-110.6,30.5-127.6,93.2c-1.5,5.7,1.8,11.5,7.5,13.1c0.2,0,0.4,0.1,0.5,0.1c21.6,4.8,43.5,8.4,65.5,10.9
	c4.9,0.3,9.3-2.7,10.8-7.4c6.3-19.4,11-24.6,32.5-24.6c24.9,0,30.9,12.8,31.9,43.1c-117.8,6.5-170.5,39.4-170.5,106.1
	c0,48,51.6,85.3,96,85.3c30.6,2.7,61-7.1,84.3-27.1c11.6,10.9,24.9,19.7,39.4,26.2c1.3,0.6,2.8,0.9,4.3,0.9c2.8,0,5.5-1.1,7.5-3.1
	l42.7-42.7C405.7,271.1,406.4,265.8,403.9,261.6z M295.6,258.6c-10.1,11.3-24.3,18.1-39.5,19c-9.7,0-41.5-3.8-42.7-53.1
	c-0.1-10.1,4-19.9,11.3-26.9c24.2-18.6,54.2-28,84.7-26.7c5.7,0,10.4,4.5,10.7,10.2C323.1,209.3,314.2,237.4,295.6,258.6
	L295.6,258.6z"/>
<g>
	<path class="st0" d="M504,341.9c-3-0.8-73.8-19-106.2,13.4c-4.1,4.2-4,11,0.3,15.1c4.1,4,10.7,4,14.8,0c17.1-17.1,56-13.8,77.3-9.8
		c-1.8,23.6-9,60.9-24.7,66.9c-5.5,2-8.4,8.1-6.3,13.7c2,5.5,8.1,8.4,13.7,6.3c0.1,0,0.2-0.1,0.3-0.1c35.9-13.7,38.7-86.7,38.9-95.1
		C512.1,347.5,508.8,343.2,504,341.9z"/>
	<path class="st0" d="M469.3,394.9c0-11.8-9.5-21.3-21.3-21.3c-4.3,0-8.6,1.4-12.1,3.9c-143.6,57.1-269.4,46.7-420-34.7
		c-5.1-2.9-11.6-1.1-14.5,4c-2.4,4.3-1.6,9.7,2,13C78.2,433.6,161,470.5,251.1,470.5c70-1.8,138.6-20.5,199.9-54.4
		C461.6,414.6,469.4,405.5,469.3,394.9z"/>
</g>
</svg>
